<mxfile host="app.diagrams.net" modified="2022-04-21T12:52:59.323Z" agent="5.0 (Windows NT 10.0; Win64; x64) AppleWebKit/537.36 (KHTML, like Gecko) Chrome/100.0.4896.127 Safari/537.36" etag="ADU5FqmIfr2lphEDQtav" version="17.4.5" type="github">
  <diagram id="ZYVVKtb8utbKUZH2lx0a" name="Página-1">
    <mxGraphModel dx="1695" dy="1655" grid="1" gridSize="10" guides="1" tooltips="1" connect="1" arrows="1" fold="1" page="1" pageScale="1" pageWidth="827" pageHeight="1169" background="none" math="0" shadow="1">
      <root>
        <mxCell id="0" />
        <mxCell id="1" parent="0" />
        <mxCell id="OvHx3TqHr2t8oJDqC7Or-1" style="edgeStyle=orthogonalEdgeStyle;rounded=0;orthogonalLoop=1;jettySize=auto;html=1;exitX=0.75;exitY=1;exitDx=0;exitDy=0;startArrow=none;startFill=0;endArrow=oval;endFill=1;" parent="1" edge="1">
          <mxGeometry relative="1" as="geometry">
            <mxPoint x="279" y="530" as="targetPoint" />
            <mxPoint x="279" y="510" as="sourcePoint" />
          </mxGeometry>
        </mxCell>
        <mxCell id="OvHx3TqHr2t8oJDqC7Or-2" style="edgeStyle=orthogonalEdgeStyle;rounded=0;orthogonalLoop=1;jettySize=auto;html=1;exitX=0.5;exitY=1;exitDx=0;exitDy=0;startArrow=none;startFill=0;endArrow=oval;endFill=0;" parent="1" edge="1">
          <mxGeometry relative="1" as="geometry">
            <mxPoint x="265.1428571428571" y="550" as="targetPoint" />
            <mxPoint x="265" y="510" as="sourcePoint" />
            <Array as="points">
              <mxPoint x="265" y="520" />
              <mxPoint x="265" y="520" />
            </Array>
          </mxGeometry>
        </mxCell>
        <mxCell id="OvHx3TqHr2t8oJDqC7Or-4" style="edgeStyle=orthogonalEdgeStyle;rounded=0;orthogonalLoop=1;jettySize=auto;html=1;exitX=0.25;exitY=1;exitDx=0;exitDy=0;startArrow=none;startFill=0;endArrow=oval;endFill=0;" parent="1" edge="1">
          <mxGeometry relative="1" as="geometry">
            <mxPoint x="239" y="590" as="targetPoint" />
            <mxPoint x="239" y="510" as="sourcePoint" />
          </mxGeometry>
        </mxCell>
        <mxCell id="YLSnhemmMj4vCAvOX7F_-20" style="edgeStyle=orthogonalEdgeStyle;rounded=0;orthogonalLoop=1;jettySize=auto;html=1;exitX=1;exitY=0.5;exitDx=0;exitDy=0;entryX=0;entryY=0.5;entryDx=0;entryDy=0;endArrow=none;endFill=0;" parent="1" source="ldB5xFA6lpnTHOYbWixm-1" target="YLSnhemmMj4vCAvOX7F_-19" edge="1">
          <mxGeometry relative="1" as="geometry" />
        </mxCell>
        <mxCell id="ldB5xFA6lpnTHOYbWixm-1" value="Habitación" style="rounded=0;whiteSpace=wrap;html=1;fontStyle=1" parent="1" vertex="1">
          <mxGeometry x="200" y="470" width="100" height="40" as="geometry" />
        </mxCell>
        <mxCell id="OvHx3TqHr2t8oJDqC7Or-9" style="edgeStyle=orthogonalEdgeStyle;rounded=0;orthogonalLoop=1;jettySize=auto;html=1;exitX=0.75;exitY=0;exitDx=0;exitDy=0;startArrow=none;startFill=0;endArrow=oval;endFill=0;" parent="1" edge="1">
          <mxGeometry relative="1" as="geometry">
            <mxPoint x="-9.71428571428578" y="-20" as="targetPoint" />
            <mxPoint x="-10" as="sourcePoint" />
          </mxGeometry>
        </mxCell>
        <mxCell id="OvHx3TqHr2t8oJDqC7Or-10" style="edgeStyle=orthogonalEdgeStyle;rounded=0;orthogonalLoop=1;jettySize=auto;html=1;exitX=0.5;exitY=0;exitDx=0;exitDy=0;startArrow=none;startFill=0;endArrow=oval;endFill=0;" parent="1" edge="1">
          <mxGeometry relative="1" as="geometry">
            <mxPoint x="-22.85714285714289" y="-40" as="targetPoint" />
            <mxPoint x="-23" as="sourcePoint" />
            <Array as="points">
              <mxPoint x="-23" y="-10" />
              <mxPoint x="-23" y="-10" />
            </Array>
          </mxGeometry>
        </mxCell>
        <mxCell id="OvHx3TqHr2t8oJDqC7Or-11" style="edgeStyle=orthogonalEdgeStyle;rounded=0;orthogonalLoop=1;jettySize=auto;html=1;exitX=0.5;exitY=0;exitDx=0;exitDy=0;startArrow=none;startFill=0;endArrow=oval;endFill=1;" parent="1" edge="1">
          <mxGeometry relative="1" as="geometry">
            <mxPoint x="-35.85714285714289" y="-60" as="targetPoint" />
            <mxPoint x="-36" as="sourcePoint" />
            <Array as="points">
              <mxPoint x="-36" y="-20" />
              <mxPoint x="-36" y="-20" />
            </Array>
          </mxGeometry>
        </mxCell>
        <mxCell id="OvHx3TqHr2t8oJDqC7Or-12" style="edgeStyle=orthogonalEdgeStyle;rounded=0;orthogonalLoop=1;jettySize=auto;html=1;exitX=0.5;exitY=0;exitDx=0;exitDy=0;startArrow=none;startFill=0;endArrow=oval;endFill=0;" parent="1" source="ldB5xFA6lpnTHOYbWixm-2" edge="1">
          <mxGeometry relative="1" as="geometry">
            <mxPoint x="-49.85714285714289" y="-80" as="targetPoint" />
          </mxGeometry>
        </mxCell>
        <mxCell id="OvHx3TqHr2t8oJDqC7Or-13" style="edgeStyle=orthogonalEdgeStyle;rounded=0;orthogonalLoop=1;jettySize=auto;html=1;exitX=0.25;exitY=0;exitDx=0;exitDy=0;startArrow=none;startFill=0;endArrow=oval;endFill=0;" parent="1" edge="1">
          <mxGeometry relative="1" as="geometry">
            <mxPoint x="-65" y="-100" as="targetPoint" />
            <mxPoint x="-65" as="sourcePoint" />
          </mxGeometry>
        </mxCell>
        <mxCell id="OvHx3TqHr2t8oJDqC7Or-14" style="edgeStyle=orthogonalEdgeStyle;rounded=0;orthogonalLoop=1;jettySize=auto;html=1;exitX=0.25;exitY=0;exitDx=0;exitDy=0;startArrow=none;startFill=0;endArrow=oval;endFill=1;" parent="1" edge="1">
          <mxGeometry relative="1" as="geometry">
            <mxPoint x="-81" y="-120" as="targetPoint" />
            <mxPoint x="-81" as="sourcePoint" />
          </mxGeometry>
        </mxCell>
        <mxCell id="ldB5xFA6lpnTHOYbWixm-2" value="Enfermero" style="rounded=0;whiteSpace=wrap;html=1;fontStyle=1" parent="1" vertex="1">
          <mxGeometry x="-100" width="100" height="40" as="geometry" />
        </mxCell>
        <mxCell id="ldB5xFA6lpnTHOYbWixm-5" style="rounded=0;orthogonalLoop=1;jettySize=auto;html=1;exitX=0.5;exitY=1;exitDx=0;exitDy=0;entryX=0.5;entryY=0;entryDx=0;entryDy=0;edgeStyle=orthogonalEdgeStyle;endArrow=none;endFill=0;" parent="1" source="ldB5xFA6lpnTHOYbWixm-3" target="ldB5xFA6lpnTHOYbWixm-4" edge="1">
          <mxGeometry relative="1" as="geometry" />
        </mxCell>
        <mxCell id="OvHx3TqHr2t8oJDqC7Or-21" style="edgeStyle=orthogonalEdgeStyle;rounded=0;orthogonalLoop=1;jettySize=auto;html=1;exitX=0.983;exitY=0.142;exitDx=0;exitDy=0;startArrow=none;startFill=0;endArrow=oval;endFill=1;exitPerimeter=0;" parent="1" edge="1">
          <mxGeometry relative="1" as="geometry">
            <mxPoint x="316" y="191" as="targetPoint" />
            <mxPoint x="284.3000000000002" y="191.20000000000005" as="sourcePoint" />
          </mxGeometry>
        </mxCell>
        <mxCell id="OvHx3TqHr2t8oJDqC7Or-23" style="edgeStyle=orthogonalEdgeStyle;rounded=0;orthogonalLoop=1;jettySize=auto;html=1;exitX=1;exitY=0.75;exitDx=0;exitDy=0;startArrow=none;startFill=0;endArrow=oval;endFill=0;" parent="1" edge="1">
          <mxGeometry relative="1" as="geometry">
            <mxPoint x="293" y="207" as="sourcePoint" />
            <mxPoint x="333" y="207" as="targetPoint" />
          </mxGeometry>
        </mxCell>
        <mxCell id="OvHx3TqHr2t8oJDqC7Or-25" style="edgeStyle=orthogonalEdgeStyle;rounded=0;orthogonalLoop=1;jettySize=auto;html=1;exitX=1;exitY=0.5;exitDx=0;exitDy=0;startArrow=none;startFill=0;endArrow=oval;endFill=0;" parent="1" edge="1">
          <mxGeometry relative="1" as="geometry">
            <mxPoint x="347" y="223" as="targetPoint" />
            <mxPoint x="297" y="223" as="sourcePoint" />
          </mxGeometry>
        </mxCell>
        <mxCell id="OvHx3TqHr2t8oJDqC7Or-27" style="edgeStyle=orthogonalEdgeStyle;rounded=0;orthogonalLoop=1;jettySize=auto;html=1;exitX=1;exitY=0.75;exitDx=0;exitDy=0;startArrow=none;startFill=0;endArrow=oval;endFill=0;" parent="1" edge="1">
          <mxGeometry relative="1" as="geometry">
            <mxPoint x="360" y="240" as="targetPoint" />
            <mxPoint x="300" y="240" as="sourcePoint" />
          </mxGeometry>
        </mxCell>
        <mxCell id="OvHx3TqHr2t8oJDqC7Or-30" style="rounded=0;orthogonalLoop=1;jettySize=auto;html=1;exitX=1;exitY=1;exitDx=0;exitDy=0;startArrow=none;startFill=0;endArrow=oval;endFill=0;" parent="1" edge="1">
          <mxGeometry relative="1" as="geometry">
            <mxPoint x="370" y="257" as="targetPoint" />
            <mxPoint x="300" y="257" as="sourcePoint" />
          </mxGeometry>
        </mxCell>
        <mxCell id="OvHx3TqHr2t8oJDqC7Or-32" style="edgeStyle=none;rounded=0;orthogonalLoop=1;jettySize=auto;html=1;exitX=1;exitY=1;exitDx=0;exitDy=0;startArrow=none;startFill=0;endArrow=oval;endFill=0;" parent="1" edge="1">
          <mxGeometry relative="1" as="geometry">
            <mxPoint x="380" y="274" as="targetPoint" />
            <mxPoint x="300" y="274" as="sourcePoint" />
          </mxGeometry>
        </mxCell>
        <mxCell id="OvHx3TqHr2t8oJDqC7Or-88" style="edgeStyle=orthogonalEdgeStyle;rounded=0;orthogonalLoop=1;jettySize=auto;html=1;exitX=0.25;exitY=1;exitDx=0;exitDy=0;entryX=0.5;entryY=0;entryDx=0;entryDy=0;startArrow=none;startFill=0;endArrow=none;endFill=0;" parent="1" source="ldB5xFA6lpnTHOYbWixm-3" target="OvHx3TqHr2t8oJDqC7Or-85" edge="1">
          <mxGeometry relative="1" as="geometry" />
        </mxCell>
        <mxCell id="ldB5xFA6lpnTHOYbWixm-3" value="Niño" style="rounded=0;whiteSpace=wrap;html=1;fontStyle=1" parent="1" vertex="1">
          <mxGeometry x="200" y="180" width="100" height="100" as="geometry" />
        </mxCell>
        <mxCell id="ldB5xFA6lpnTHOYbWixm-6" style="edgeStyle=orthogonalEdgeStyle;rounded=0;orthogonalLoop=1;jettySize=auto;html=1;exitX=0.5;exitY=1;exitDx=0;exitDy=0;entryX=0.5;entryY=0;entryDx=0;entryDy=0;endArrow=none;endFill=0;" parent="1" source="ldB5xFA6lpnTHOYbWixm-4" target="ldB5xFA6lpnTHOYbWixm-1" edge="1">
          <mxGeometry relative="1" as="geometry" />
        </mxCell>
        <mxCell id="v-rBTAr1B4yWfYjMJ2wU-1" style="edgeStyle=orthogonalEdgeStyle;rounded=0;orthogonalLoop=1;jettySize=auto;html=1;exitX=1;exitY=0;exitDx=0;exitDy=0;endArrow=oval;endFill=0;" parent="1" source="ldB5xFA6lpnTHOYbWixm-4" edge="1">
          <mxGeometry relative="1" as="geometry">
            <mxPoint x="310" y="360" as="targetPoint" />
          </mxGeometry>
        </mxCell>
        <mxCell id="v-rBTAr1B4yWfYjMJ2wU-2" style="edgeStyle=orthogonalEdgeStyle;rounded=0;orthogonalLoop=1;jettySize=auto;html=1;exitX=1;exitY=1;exitDx=0;exitDy=0;endArrow=oval;endFill=0;" parent="1" source="ldB5xFA6lpnTHOYbWixm-4" edge="1">
          <mxGeometry relative="1" as="geometry">
            <mxPoint x="310" y="400" as="targetPoint" />
          </mxGeometry>
        </mxCell>
        <mxCell id="ldB5xFA6lpnTHOYbWixm-4" value="aloja" style="rhombus;whiteSpace=wrap;html=1;" parent="1" vertex="1">
          <mxGeometry x="210" y="340" width="80" height="80" as="geometry" />
        </mxCell>
        <mxCell id="OvHx3TqHr2t8oJDqC7Or-34" style="edgeStyle=none;rounded=0;orthogonalLoop=1;jettySize=auto;html=1;exitX=0.75;exitY=1;exitDx=0;exitDy=0;startArrow=none;startFill=0;endArrow=oval;endFill=0;" parent="1" source="ldB5xFA6lpnTHOYbWixm-7" edge="1">
          <mxGeometry relative="1" as="geometry">
            <mxPoint x="-25.5" y="540" as="targetPoint" />
          </mxGeometry>
        </mxCell>
        <mxCell id="OvHx3TqHr2t8oJDqC7Or-35" style="edgeStyle=orthogonalEdgeStyle;rounded=0;orthogonalLoop=1;jettySize=auto;html=1;exitX=0.75;exitY=1;exitDx=0;exitDy=0;startArrow=none;startFill=0;endArrow=oval;endFill=0;" parent="1" source="ldB5xFA6lpnTHOYbWixm-7" edge="1">
          <mxGeometry relative="1" as="geometry">
            <mxPoint x="-38.5" y="560" as="targetPoint" />
            <mxPoint x="-38.5" y="520" as="sourcePoint" />
            <Array as="points">
              <mxPoint x="-38.5" y="510" />
            </Array>
          </mxGeometry>
        </mxCell>
        <mxCell id="OvHx3TqHr2t8oJDqC7Or-36" style="edgeStyle=none;rounded=0;orthogonalLoop=1;jettySize=auto;html=1;exitX=0.5;exitY=1;exitDx=0;exitDy=0;startArrow=none;startFill=0;endArrow=oval;endFill=0;" parent="1" source="ldB5xFA6lpnTHOYbWixm-7" edge="1">
          <mxGeometry relative="1" as="geometry">
            <mxPoint x="-50.5" y="580" as="targetPoint" />
          </mxGeometry>
        </mxCell>
        <mxCell id="OvHx3TqHr2t8oJDqC7Or-37" style="edgeStyle=orthogonalEdgeStyle;rounded=0;orthogonalLoop=1;jettySize=auto;html=1;exitX=0.5;exitY=1;exitDx=0;exitDy=0;startArrow=none;startFill=0;endArrow=oval;endFill=0;" parent="1" source="ldB5xFA6lpnTHOYbWixm-7" edge="1">
          <mxGeometry relative="1" as="geometry">
            <mxPoint x="-66.5" y="600" as="targetPoint" />
            <mxPoint x="-66.5" y="520" as="sourcePoint" />
            <Array as="points">
              <mxPoint x="-66.5" y="510" />
            </Array>
          </mxGeometry>
        </mxCell>
        <mxCell id="ldB5xFA6lpnTHOYbWixm-7" value="Medicamento" style="rounded=0;whiteSpace=wrap;html=1;fontStyle=1" parent="1" vertex="1">
          <mxGeometry x="-100.5" y="470" width="100" height="40" as="geometry" />
        </mxCell>
        <mxCell id="OvHx3TqHr2t8oJDqC7Or-55" style="edgeStyle=orthogonalEdgeStyle;rounded=0;orthogonalLoop=1;jettySize=auto;html=1;exitX=0.75;exitY=1;exitDx=0;exitDy=0;startArrow=none;startFill=0;endArrow=oval;endFill=0;" parent="1" source="ldB5xFA6lpnTHOYbWixm-8" edge="1">
          <mxGeometry relative="1" as="geometry">
            <mxPoint x="748.5" y="173" as="targetPoint" />
          </mxGeometry>
        </mxCell>
        <mxCell id="OvHx3TqHr2t8oJDqC7Or-57" style="edgeStyle=orthogonalEdgeStyle;rounded=0;orthogonalLoop=1;jettySize=auto;html=1;exitX=0.25;exitY=1;exitDx=0;exitDy=0;startArrow=none;startFill=0;endArrow=oval;endFill=0;" parent="1" edge="1">
          <mxGeometry relative="1" as="geometry">
            <mxPoint x="737.5" y="223" as="targetPoint" />
            <mxPoint x="737.5" y="153" as="sourcePoint" />
          </mxGeometry>
        </mxCell>
        <mxCell id="YLSnhemmMj4vCAvOX7F_-8" style="edgeStyle=orthogonalEdgeStyle;rounded=0;orthogonalLoop=1;jettySize=auto;html=1;exitX=0.25;exitY=1;exitDx=0;exitDy=0;entryX=0.5;entryY=0;entryDx=0;entryDy=0;endArrow=none;endFill=0;" parent="1" source="ldB5xFA6lpnTHOYbWixm-8" target="YLSnhemmMj4vCAvOX7F_-7" edge="1">
          <mxGeometry relative="1" as="geometry" />
        </mxCell>
        <mxCell id="ldB5xFA6lpnTHOYbWixm-8" value="Tutor" style="rounded=0;whiteSpace=wrap;html=1;fontStyle=1" parent="1" vertex="1">
          <mxGeometry x="673.5" y="113" width="100" height="40" as="geometry" />
        </mxCell>
        <mxCell id="ldB5xFA6lpnTHOYbWixm-9" value="Autorizado" style="rounded=0;whiteSpace=wrap;html=1;fontStyle=1" parent="1" vertex="1">
          <mxGeometry x="463.5" y="113" width="100" height="40" as="geometry" />
        </mxCell>
        <mxCell id="ldB5xFA6lpnTHOYbWixm-13" style="edgeStyle=orthogonalEdgeStyle;rounded=0;orthogonalLoop=1;jettySize=auto;html=1;exitX=0.5;exitY=1;exitDx=0;exitDy=0;entryX=0.5;entryY=0;entryDx=0;entryDy=0;endArrow=none;endFill=0;" parent="1" source="ldB5xFA6lpnTHOYbWixm-10" target="ldB5xFA6lpnTHOYbWixm-11" edge="1">
          <mxGeometry relative="1" as="geometry" />
        </mxCell>
        <mxCell id="ldB5xFA6lpnTHOYbWixm-15" style="edgeStyle=orthogonalEdgeStyle;rounded=0;orthogonalLoop=1;jettySize=auto;html=1;exitX=0.5;exitY=0;exitDx=0;exitDy=0;entryX=0.5;entryY=1;entryDx=0;entryDy=0;endArrow=none;endFill=0;" parent="1" source="ldB5xFA6lpnTHOYbWixm-10" target="ldB5xFA6lpnTHOYbWixm-14" edge="1">
          <mxGeometry relative="1" as="geometry" />
        </mxCell>
        <mxCell id="OvHx3TqHr2t8oJDqC7Or-64" style="edgeStyle=orthogonalEdgeStyle;rounded=0;orthogonalLoop=1;jettySize=auto;html=1;exitX=1;exitY=0.25;exitDx=0;exitDy=0;startArrow=none;startFill=0;endArrow=oval;endFill=0;" parent="1" source="ldB5xFA6lpnTHOYbWixm-10" edge="1">
          <mxGeometry relative="1" as="geometry">
            <mxPoint x="320" y="10" as="targetPoint" />
          </mxGeometry>
        </mxCell>
        <mxCell id="OvHx3TqHr2t8oJDqC7Or-66" style="edgeStyle=orthogonalEdgeStyle;rounded=0;orthogonalLoop=1;jettySize=auto;html=1;exitX=1;exitY=0.75;exitDx=0;exitDy=0;startArrow=none;startFill=0;endArrow=oval;endFill=0;" parent="1" source="ldB5xFA6lpnTHOYbWixm-10" edge="1">
          <mxGeometry relative="1" as="geometry">
            <mxPoint x="320" y="30" as="targetPoint" />
          </mxGeometry>
        </mxCell>
        <mxCell id="ldB5xFA6lpnTHOYbWixm-10" value="Visita" style="rounded=0;whiteSpace=wrap;html=1;fontStyle=1" parent="1" vertex="1">
          <mxGeometry x="200" width="100" height="40" as="geometry" />
        </mxCell>
        <mxCell id="ldB5xFA6lpnTHOYbWixm-12" style="edgeStyle=orthogonalEdgeStyle;rounded=0;orthogonalLoop=1;jettySize=auto;html=1;exitX=0.5;exitY=1;exitDx=0;exitDy=0;entryX=0.5;entryY=0;entryDx=0;entryDy=0;endArrow=none;endFill=0;" parent="1" source="ldB5xFA6lpnTHOYbWixm-11" target="ldB5xFA6lpnTHOYbWixm-3" edge="1">
          <mxGeometry relative="1" as="geometry" />
        </mxCell>
        <mxCell id="ldB5xFA6lpnTHOYbWixm-11" value="se visita" style="rhombus;whiteSpace=wrap;html=1;" parent="1" vertex="1">
          <mxGeometry x="210" y="70" width="80" height="80" as="geometry" />
        </mxCell>
        <mxCell id="ldB5xFA6lpnTHOYbWixm-34" style="edgeStyle=orthogonalEdgeStyle;rounded=0;orthogonalLoop=1;jettySize=auto;html=1;exitX=1;exitY=0.5;exitDx=0;exitDy=0;entryX=0;entryY=0.5;entryDx=0;entryDy=0;endArrow=none;endFill=0;" parent="1" source="ldB5xFA6lpnTHOYbWixm-14" target="ldB5xFA6lpnTHOYbWixm-30" edge="1">
          <mxGeometry relative="1" as="geometry" />
        </mxCell>
        <mxCell id="ldB5xFA6lpnTHOYbWixm-14" value="realiza" style="rhombus;whiteSpace=wrap;html=1;" parent="1" vertex="1">
          <mxGeometry x="210" y="-160" width="80" height="80" as="geometry" />
        </mxCell>
        <mxCell id="ldB5xFA6lpnTHOYbWixm-18" style="edgeStyle=orthogonalEdgeStyle;rounded=0;orthogonalLoop=1;jettySize=auto;html=1;exitX=1;exitY=0.5;exitDx=0;exitDy=0;entryX=0;entryY=0.5;entryDx=0;entryDy=0;endArrow=none;endFill=0;" parent="1" source="ldB5xFA6lpnTHOYbWixm-17" target="ldB5xFA6lpnTHOYbWixm-10" edge="1">
          <mxGeometry relative="1" as="geometry" />
        </mxCell>
        <mxCell id="ldB5xFA6lpnTHOYbWixm-19" style="edgeStyle=orthogonalEdgeStyle;rounded=0;orthogonalLoop=1;jettySize=auto;html=1;exitX=0;exitY=0.5;exitDx=0;exitDy=0;entryX=1;entryY=0.5;entryDx=0;entryDy=0;endArrow=none;endFill=0;" parent="1" source="ldB5xFA6lpnTHOYbWixm-17" target="ldB5xFA6lpnTHOYbWixm-2" edge="1">
          <mxGeometry relative="1" as="geometry" />
        </mxCell>
        <mxCell id="ldB5xFA6lpnTHOYbWixm-17" value="supervisa" style="rhombus;whiteSpace=wrap;html=1;" parent="1" vertex="1">
          <mxGeometry x="50" y="-20" width="80" height="80" as="geometry" />
        </mxCell>
        <mxCell id="ldB5xFA6lpnTHOYbWixm-22" style="edgeStyle=orthogonalEdgeStyle;rounded=0;orthogonalLoop=1;jettySize=auto;html=1;exitX=0.5;exitY=0;exitDx=0;exitDy=0;entryX=0.5;entryY=1;entryDx=0;entryDy=0;endArrow=none;endFill=0;" parent="1" source="ldB5xFA6lpnTHOYbWixm-20" target="ldB5xFA6lpnTHOYbWixm-2" edge="1">
          <mxGeometry relative="1" as="geometry" />
        </mxCell>
        <mxCell id="ldB5xFA6lpnTHOYbWixm-23" style="edgeStyle=orthogonalEdgeStyle;rounded=0;orthogonalLoop=1;jettySize=auto;html=1;exitX=0.5;exitY=1;exitDx=0;exitDy=0;entryX=0.5;entryY=0;entryDx=0;entryDy=0;endArrow=none;endFill=0;" parent="1" source="ldB5xFA6lpnTHOYbWixm-20" target="ldB5xFA6lpnTHOYbWixm-21" edge="1">
          <mxGeometry relative="1" as="geometry" />
        </mxCell>
        <mxCell id="ldB5xFA6lpnTHOYbWixm-20" value="suministra" style="rhombus;whiteSpace=wrap;html=1;" parent="1" vertex="1">
          <mxGeometry x="-90" y="70" width="80" height="80" as="geometry" />
        </mxCell>
        <mxCell id="ldB5xFA6lpnTHOYbWixm-25" style="edgeStyle=orthogonalEdgeStyle;rounded=0;orthogonalLoop=1;jettySize=auto;html=1;exitX=1;exitY=0.5;exitDx=0;exitDy=0;entryX=0;entryY=0.5;entryDx=0;entryDy=0;endArrow=none;endFill=0;" parent="1" source="ldB5xFA6lpnTHOYbWixm-21" target="ldB5xFA6lpnTHOYbWixm-24" edge="1">
          <mxGeometry relative="1" as="geometry" />
        </mxCell>
        <mxCell id="ldB5xFA6lpnTHOYbWixm-28" style="edgeStyle=orthogonalEdgeStyle;rounded=0;orthogonalLoop=1;jettySize=auto;html=1;exitX=0;exitY=0.5;exitDx=0;exitDy=0;entryX=0.5;entryY=0;entryDx=0;entryDy=0;endArrow=none;endFill=0;" parent="1" source="ldB5xFA6lpnTHOYbWixm-21" target="ldB5xFA6lpnTHOYbWixm-27" edge="1">
          <mxGeometry relative="1" as="geometry" />
        </mxCell>
        <mxCell id="OvHx3TqHr2t8oJDqC7Or-86" style="edgeStyle=orthogonalEdgeStyle;rounded=0;orthogonalLoop=1;jettySize=auto;html=1;exitX=0.75;exitY=0;exitDx=0;exitDy=0;startArrow=none;startFill=0;endArrow=oval;endFill=0;" parent="1" edge="1">
          <mxGeometry relative="1" as="geometry">
            <mxPoint x="-27.71428571428578" y="170" as="targetPoint" />
            <mxPoint x="-28" y="210" as="sourcePoint" />
            <Array as="points">
              <mxPoint x="-28" y="200" />
              <mxPoint x="-28" y="200" />
            </Array>
          </mxGeometry>
        </mxCell>
        <mxCell id="ldB5xFA6lpnTHOYbWixm-21" value="Toma" style="rounded=0;whiteSpace=wrap;html=1;fontStyle=1" parent="1" vertex="1">
          <mxGeometry x="-100" y="210" width="100" height="40" as="geometry" />
        </mxCell>
        <mxCell id="ldB5xFA6lpnTHOYbWixm-26" style="edgeStyle=orthogonalEdgeStyle;rounded=0;orthogonalLoop=1;jettySize=auto;html=1;exitX=1;exitY=0.5;exitDx=0;exitDy=0;entryX=0;entryY=0.5;entryDx=0;entryDy=0;endArrow=none;endFill=0;" parent="1" source="ldB5xFA6lpnTHOYbWixm-24" target="ldB5xFA6lpnTHOYbWixm-3" edge="1">
          <mxGeometry relative="1" as="geometry" />
        </mxCell>
        <mxCell id="OvHx3TqHr2t8oJDqC7Or-80" style="edgeStyle=orthogonalEdgeStyle;rounded=0;orthogonalLoop=1;jettySize=auto;html=1;exitX=0.5;exitY=0;exitDx=0;exitDy=0;startArrow=none;startFill=0;endArrow=oval;endFill=0;" parent="1" edge="1">
          <mxGeometry relative="1" as="geometry">
            <mxPoint x="-13" y="190" as="targetPoint" />
            <mxPoint x="-13" y="210" as="sourcePoint" />
          </mxGeometry>
        </mxCell>
        <mxCell id="ldB5xFA6lpnTHOYbWixm-24" value="se medica" style="rhombus;whiteSpace=wrap;html=1;" parent="1" vertex="1">
          <mxGeometry x="60" y="190" width="80" height="80" as="geometry" />
        </mxCell>
        <mxCell id="ldB5xFA6lpnTHOYbWixm-29" style="edgeStyle=orthogonalEdgeStyle;rounded=0;orthogonalLoop=1;jettySize=auto;html=1;exitX=0.5;exitY=1;exitDx=0;exitDy=0;entryX=0;entryY=0.5;entryDx=0;entryDy=0;endArrow=none;endFill=0;" parent="1" source="ldB5xFA6lpnTHOYbWixm-27" target="ldB5xFA6lpnTHOYbWixm-7" edge="1">
          <mxGeometry relative="1" as="geometry" />
        </mxCell>
        <mxCell id="OvHx3TqHr2t8oJDqC7Or-45" style="edgeStyle=orthogonalEdgeStyle;rounded=0;orthogonalLoop=1;jettySize=auto;html=1;exitX=0;exitY=0;exitDx=0;exitDy=0;startArrow=none;startFill=0;endArrow=oval;endFill=0;" parent="1" edge="1">
          <mxGeometry relative="1" as="geometry">
            <mxPoint x="20" y="350" as="targetPoint" />
            <mxPoint x="80" y="350" as="sourcePoint" />
          </mxGeometry>
        </mxCell>
        <mxCell id="OvHx3TqHr2t8oJDqC7Or-47" style="edgeStyle=orthogonalEdgeStyle;rounded=0;orthogonalLoop=1;jettySize=auto;html=1;exitX=0;exitY=1;exitDx=0;exitDy=0;startArrow=none;startFill=0;endArrow=oval;endFill=0;" parent="1" edge="1">
          <mxGeometry relative="1" as="geometry">
            <mxPoint x="20" y="390" as="targetPoint" />
            <mxPoint x="80" y="390" as="sourcePoint" />
          </mxGeometry>
        </mxCell>
        <mxCell id="ldB5xFA6lpnTHOYbWixm-27" value="se toma" style="rhombus;whiteSpace=wrap;html=1;" parent="1" vertex="1">
          <mxGeometry x="-220" y="267" width="80" height="80" as="geometry" />
        </mxCell>
        <mxCell id="OvHx3TqHr2t8oJDqC7Or-49" style="edgeStyle=orthogonalEdgeStyle;rounded=0;orthogonalLoop=1;jettySize=auto;html=1;exitX=0.25;exitY=0;exitDx=0;exitDy=0;startArrow=none;startFill=0;endArrow=oval;endFill=1;" parent="1" source="ldB5xFA6lpnTHOYbWixm-30" edge="1">
          <mxGeometry relative="1" as="geometry">
            <mxPoint x="585" y="-200" as="targetPoint" />
          </mxGeometry>
        </mxCell>
        <mxCell id="OvHx3TqHr2t8oJDqC7Or-51" style="edgeStyle=orthogonalEdgeStyle;rounded=0;orthogonalLoop=1;jettySize=auto;html=1;exitX=0.5;exitY=0;exitDx=0;exitDy=0;startArrow=none;startFill=0;endArrow=oval;endFill=0;" parent="1" source="ldB5xFA6lpnTHOYbWixm-30" edge="1">
          <mxGeometry relative="1" as="geometry">
            <mxPoint x="610" y="-180" as="targetPoint" />
          </mxGeometry>
        </mxCell>
        <mxCell id="OvHx3TqHr2t8oJDqC7Or-53" style="edgeStyle=orthogonalEdgeStyle;rounded=0;orthogonalLoop=1;jettySize=auto;html=1;exitX=0.75;exitY=0;exitDx=0;exitDy=0;startArrow=none;startFill=0;endArrow=oval;endFill=0;" parent="1" source="ldB5xFA6lpnTHOYbWixm-30" edge="1">
          <mxGeometry relative="1" as="geometry">
            <mxPoint x="635" y="-160" as="targetPoint" />
          </mxGeometry>
        </mxCell>
        <mxCell id="YLSnhemmMj4vCAvOX7F_-3" style="edgeStyle=orthogonalEdgeStyle;rounded=0;orthogonalLoop=1;jettySize=auto;html=1;exitX=0.25;exitY=1;exitDx=0;exitDy=0;entryX=0.5;entryY=0;entryDx=0;entryDy=0;endArrow=none;endFill=0;" parent="1" source="ldB5xFA6lpnTHOYbWixm-30" target="YLSnhemmMj4vCAvOX7F_-1" edge="1">
          <mxGeometry relative="1" as="geometry" />
        </mxCell>
        <mxCell id="YLSnhemmMj4vCAvOX7F_-5" style="edgeStyle=orthogonalEdgeStyle;rounded=0;orthogonalLoop=1;jettySize=auto;html=1;exitX=0.75;exitY=1;exitDx=0;exitDy=0;entryX=0.5;entryY=0;entryDx=0;entryDy=0;endArrow=none;endFill=0;" parent="1" source="ldB5xFA6lpnTHOYbWixm-30" target="YLSnhemmMj4vCAvOX7F_-2" edge="1">
          <mxGeometry relative="1" as="geometry" />
        </mxCell>
        <mxCell id="ldB5xFA6lpnTHOYbWixm-30" value="Visitante" style="rounded=0;whiteSpace=wrap;html=1;fontStyle=1" parent="1" vertex="1">
          <mxGeometry x="560" y="-140" width="100" height="40" as="geometry" />
        </mxCell>
        <mxCell id="ldB5xFA6lpnTHOYbWixm-35" value="(1,N)" style="text;html=1;align=center;verticalAlign=middle;resizable=0;points=[];autosize=1;strokeColor=none;fillColor=none;" parent="1" vertex="1">
          <mxGeometry x="250" y="280" width="40" height="20" as="geometry" />
        </mxCell>
        <mxCell id="ldB5xFA6lpnTHOYbWixm-37" value="(0,N)" style="text;html=1;align=center;verticalAlign=middle;resizable=0;points=[];autosize=1;strokeColor=none;fillColor=none;" parent="1" vertex="1">
          <mxGeometry x="250" y="450" width="40" height="20" as="geometry" />
        </mxCell>
        <mxCell id="OvHx3TqHr2t8oJDqC7Or-5" value="nro" style="text;html=1;align=center;verticalAlign=middle;resizable=0;points=[];autosize=1;strokeColor=none;fillColor=none;" parent="1" vertex="1">
          <mxGeometry x="280" y="520" width="30" height="20" as="geometry" />
        </mxCell>
        <mxCell id="OvHx3TqHr2t8oJDqC7Or-6" value="tamaño" style="text;html=1;align=center;verticalAlign=middle;resizable=0;points=[];autosize=1;strokeColor=none;fillColor=none;" parent="1" vertex="1">
          <mxGeometry x="262" y="539" width="60" height="20" as="geometry" />
        </mxCell>
        <mxCell id="OvHx3TqHr2t8oJDqC7Or-8" value="ubicación" style="text;html=1;align=center;verticalAlign=middle;resizable=0;points=[];autosize=1;strokeColor=none;fillColor=none;" parent="1" vertex="1">
          <mxGeometry x="235" y="580" width="70" height="20" as="geometry" />
        </mxCell>
        <mxCell id="OvHx3TqHr2t8oJDqC7Or-15" value="matricula" style="text;html=1;align=center;verticalAlign=middle;resizable=0;points=[];autosize=1;strokeColor=none;fillColor=none;" parent="1" vertex="1">
          <mxGeometry x="-80" y="-130" width="60" height="20" as="geometry" />
        </mxCell>
        <mxCell id="OvHx3TqHr2t8oJDqC7Or-16" value="nombre" style="text;html=1;align=center;verticalAlign=middle;resizable=0;points=[];autosize=1;strokeColor=none;fillColor=none;" parent="1" vertex="1">
          <mxGeometry x="-68" y="-111" width="60" height="20" as="geometry" />
        </mxCell>
        <mxCell id="OvHx3TqHr2t8oJDqC7Or-17" value="apellido" style="text;html=1;align=center;verticalAlign=middle;resizable=0;points=[];autosize=1;strokeColor=none;fillColor=none;" parent="1" vertex="1">
          <mxGeometry x="-53" y="-91" width="60" height="20" as="geometry" />
        </mxCell>
        <mxCell id="OvHx3TqHr2t8oJDqC7Or-18" value="dni" style="text;html=1;align=center;verticalAlign=middle;resizable=0;points=[];autosize=1;strokeColor=none;fillColor=none;" parent="1" vertex="1">
          <mxGeometry x="-35" y="-70" width="30" height="20" as="geometry" />
        </mxCell>
        <mxCell id="OvHx3TqHr2t8oJDqC7Or-19" value="fechaNac" style="text;html=1;align=center;verticalAlign=middle;resizable=0;points=[];autosize=1;strokeColor=none;fillColor=none;" parent="1" vertex="1">
          <mxGeometry x="-25" y="-50" width="70" height="20" as="geometry" />
        </mxCell>
        <mxCell id="OvHx3TqHr2t8oJDqC7Or-20" value="#hijos" style="text;html=1;align=center;verticalAlign=middle;resizable=0;points=[];autosize=1;strokeColor=none;fillColor=none;" parent="1" vertex="1">
          <mxGeometry x="-13" y="-30" width="50" height="20" as="geometry" />
        </mxCell>
        <mxCell id="OvHx3TqHr2t8oJDqC7Or-22" value="dni" style="text;html=1;align=center;verticalAlign=middle;resizable=0;points=[];autosize=1;strokeColor=none;fillColor=none;" parent="1" vertex="1">
          <mxGeometry x="320" y="182" width="30" height="20" as="geometry" />
        </mxCell>
        <mxCell id="OvHx3TqHr2t8oJDqC7Or-24" value="nombre" style="text;html=1;align=center;verticalAlign=middle;resizable=0;points=[];autosize=1;strokeColor=none;fillColor=none;" parent="1" vertex="1">
          <mxGeometry x="330" y="197" width="60" height="20" as="geometry" />
        </mxCell>
        <mxCell id="OvHx3TqHr2t8oJDqC7Or-26" value="apellido" style="text;html=1;align=center;verticalAlign=middle;resizable=0;points=[];autosize=1;strokeColor=none;fillColor=none;" parent="1" vertex="1">
          <mxGeometry x="346" y="213" width="60" height="20" as="geometry" />
        </mxCell>
        <mxCell id="OvHx3TqHr2t8oJDqC7Or-28" value="peso" style="text;html=1;align=center;verticalAlign=middle;resizable=0;points=[];autosize=1;strokeColor=none;fillColor=none;" parent="1" vertex="1">
          <mxGeometry x="362" y="230" width="40" height="20" as="geometry" />
        </mxCell>
        <mxCell id="OvHx3TqHr2t8oJDqC7Or-31" value="edad" style="text;html=1;align=center;verticalAlign=middle;resizable=0;points=[];autosize=1;strokeColor=none;fillColor=none;" parent="1" vertex="1">
          <mxGeometry x="371" y="247" width="40" height="20" as="geometry" />
        </mxCell>
        <mxCell id="OvHx3TqHr2t8oJDqC7Or-33" value="genero" style="text;html=1;align=center;verticalAlign=middle;resizable=0;points=[];autosize=1;strokeColor=none;fillColor=none;" parent="1" vertex="1">
          <mxGeometry x="382" y="264" width="50" height="20" as="geometry" />
        </mxCell>
        <mxCell id="OvHx3TqHr2t8oJDqC7Or-38" value="nombreCom" style="text;html=1;align=center;verticalAlign=middle;resizable=0;points=[];autosize=1;strokeColor=none;fillColor=none;" parent="1" vertex="1">
          <mxGeometry x="-25.5" y="530" width="80" height="20" as="geometry" />
        </mxCell>
        <mxCell id="OvHx3TqHr2t8oJDqC7Or-39" value="presentación" style="text;html=1;align=center;verticalAlign=middle;resizable=0;points=[];autosize=1;strokeColor=none;fillColor=none;" parent="1" vertex="1">
          <mxGeometry x="-37.5" y="550" width="80" height="20" as="geometry" />
        </mxCell>
        <mxCell id="OvHx3TqHr2t8oJDqC7Or-41" value="nombreGen" style="text;html=1;align=center;verticalAlign=middle;resizable=0;points=[];autosize=1;strokeColor=none;fillColor=none;" parent="1" vertex="1">
          <mxGeometry x="-53.5" y="570" width="80" height="20" as="geometry" />
        </mxCell>
        <mxCell id="OvHx3TqHr2t8oJDqC7Or-42" value="nombreLab" style="text;html=1;align=center;verticalAlign=middle;resizable=0;points=[];autosize=1;strokeColor=none;fillColor=none;" parent="1" vertex="1">
          <mxGeometry x="-68.5" y="590" width="80" height="20" as="geometry" />
        </mxCell>
        <mxCell id="OvHx3TqHr2t8oJDqC7Or-43" value="" style="endArrow=oval;html=1;rounded=0;endFill=1;" parent="1" edge="1">
          <mxGeometry width="50" height="50" relative="1" as="geometry">
            <mxPoint x="-37.5" y="521" as="sourcePoint" />
            <mxPoint x="-7.5" y="521" as="targetPoint" />
          </mxGeometry>
        </mxCell>
        <mxCell id="OvHx3TqHr2t8oJDqC7Or-46" value="frecuencia" style="text;html=1;align=center;verticalAlign=middle;resizable=0;points=[];autosize=1;strokeColor=none;fillColor=none;" parent="1" vertex="1">
          <mxGeometry x="-50" y="340" width="70" height="20" as="geometry" />
        </mxCell>
        <mxCell id="OvHx3TqHr2t8oJDqC7Or-48" value="cantidad" style="text;html=1;align=center;verticalAlign=middle;resizable=0;points=[];autosize=1;strokeColor=none;fillColor=none;" parent="1" vertex="1">
          <mxGeometry x="-40" y="380" width="60" height="20" as="geometry" />
        </mxCell>
        <mxCell id="OvHx3TqHr2t8oJDqC7Or-50" value="dni" style="text;html=1;align=center;verticalAlign=middle;resizable=0;points=[];autosize=1;strokeColor=none;fillColor=none;" parent="1" vertex="1">
          <mxGeometry x="586" y="-210" width="30" height="20" as="geometry" />
        </mxCell>
        <mxCell id="OvHx3TqHr2t8oJDqC7Or-52" value="apellido" style="text;html=1;align=center;verticalAlign=middle;resizable=0;points=[];autosize=1;strokeColor=none;fillColor=none;" parent="1" vertex="1">
          <mxGeometry x="608" y="-191" width="60" height="20" as="geometry" />
        </mxCell>
        <mxCell id="OvHx3TqHr2t8oJDqC7Or-54" value="nombre" style="text;html=1;align=center;verticalAlign=middle;resizable=0;points=[];autosize=1;strokeColor=none;fillColor=none;" parent="1" vertex="1">
          <mxGeometry x="636" y="-170" width="60" height="20" as="geometry" />
        </mxCell>
        <mxCell id="OvHx3TqHr2t8oJDqC7Or-58" value="vínculo" style="text;html=1;align=center;verticalAlign=middle;resizable=0;points=[];autosize=1;strokeColor=none;fillColor=none;" parent="1" vertex="1">
          <mxGeometry x="750.5" y="163" width="50" height="20" as="geometry" />
        </mxCell>
        <mxCell id="OvHx3TqHr2t8oJDqC7Or-60" value="dirección" style="text;html=1;align=center;verticalAlign=middle;resizable=0;points=[];autosize=1;strokeColor=none;fillColor=none;" parent="1" vertex="1">
          <mxGeometry x="738.5" y="213" width="60" height="20" as="geometry" />
        </mxCell>
        <mxCell id="OvHx3TqHr2t8oJDqC7Or-61" value="(0,1)" style="text;html=1;align=center;verticalAlign=middle;resizable=0;points=[];autosize=1;strokeColor=none;fillColor=none;" parent="1" vertex="1">
          <mxGeometry x="160" width="40" height="20" as="geometry" />
        </mxCell>
        <mxCell id="OvHx3TqHr2t8oJDqC7Or-62" value="(0,N)" style="text;html=1;align=center;verticalAlign=middle;resizable=0;points=[];autosize=1;strokeColor=none;fillColor=none;" parent="1" vertex="1">
          <mxGeometry y="20" width="40" height="20" as="geometry" />
        </mxCell>
        <mxCell id="OvHx3TqHr2t8oJDqC7Or-65" value="fecha" style="text;html=1;align=center;verticalAlign=middle;resizable=0;points=[];autosize=1;strokeColor=none;fillColor=none;" parent="1" vertex="1">
          <mxGeometry x="322" width="40" height="20" as="geometry" />
        </mxCell>
        <mxCell id="OvHx3TqHr2t8oJDqC7Or-67" value="hora" style="text;html=1;align=center;verticalAlign=middle;resizable=0;points=[];autosize=1;strokeColor=none;fillColor=none;" parent="1" vertex="1">
          <mxGeometry x="320" y="20" width="40" height="20" as="geometry" />
        </mxCell>
        <mxCell id="OvHx3TqHr2t8oJDqC7Or-68" value="(1,1)" style="text;html=1;align=center;verticalAlign=middle;resizable=0;points=[];autosize=1;strokeColor=none;fillColor=none;" parent="1" vertex="1">
          <mxGeometry x="250" y="40" width="40" height="20" as="geometry" />
        </mxCell>
        <mxCell id="OvHx3TqHr2t8oJDqC7Or-69" value="(1,1)" style="text;html=1;align=center;verticalAlign=middle;resizable=0;points=[];autosize=1;strokeColor=none;fillColor=none;" parent="1" vertex="1">
          <mxGeometry x="250" y="-20" width="40" height="20" as="geometry" />
        </mxCell>
        <mxCell id="OvHx3TqHr2t8oJDqC7Or-70" value="(0,N)" style="text;html=1;align=center;verticalAlign=middle;resizable=0;points=[];autosize=1;strokeColor=none;fillColor=none;" parent="1" vertex="1">
          <mxGeometry x="213" y="160" width="40" height="20" as="geometry" />
        </mxCell>
        <mxCell id="OvHx3TqHr2t8oJDqC7Or-71" value="(0,N)" style="text;html=1;align=center;verticalAlign=middle;resizable=0;points=[];autosize=1;strokeColor=none;fillColor=none;" parent="1" vertex="1">
          <mxGeometry x="520" y="-140" width="40" height="20" as="geometry" />
        </mxCell>
        <mxCell id="OvHx3TqHr2t8oJDqC7Or-72" value="" style="curved=1;endArrow=oval;html=1;rounded=0;exitX=0.842;exitY=0.042;exitDx=0;exitDy=0;exitPerimeter=0;endFill=1;" parent="1" edge="1">
          <mxGeometry width="50" height="50" relative="1" as="geometry">
            <mxPoint x="249.68000000000006" y="160.83999999999992" as="sourcePoint" />
            <mxPoint x="310" y="-10" as="targetPoint" />
            <Array as="points">
              <mxPoint x="310" y="150" />
              <mxPoint x="310" y="80" />
            </Array>
          </mxGeometry>
        </mxCell>
        <mxCell id="OvHx3TqHr2t8oJDqC7Or-73" value="(1,1)" style="text;html=1;align=center;verticalAlign=middle;resizable=0;points=[];autosize=1;strokeColor=none;fillColor=none;" parent="1" vertex="1">
          <mxGeometry x="-90" y="193" width="40" height="20" as="geometry" />
        </mxCell>
        <mxCell id="OvHx3TqHr2t8oJDqC7Or-74" value="(1,1)" style="text;html=1;align=center;verticalAlign=middle;resizable=0;points=[];autosize=1;strokeColor=none;fillColor=none;" parent="1" vertex="1">
          <mxGeometry x="-140" y="210" width="40" height="20" as="geometry" />
        </mxCell>
        <mxCell id="OvHx3TqHr2t8oJDqC7Or-75" value="(1,1)" style="text;html=1;align=center;verticalAlign=middle;resizable=0;points=[];autosize=1;strokeColor=none;fillColor=none;" parent="1" vertex="1">
          <mxGeometry y="210" width="40" height="20" as="geometry" />
        </mxCell>
        <mxCell id="OvHx3TqHr2t8oJDqC7Or-77" value="(0,N)" style="text;html=1;align=center;verticalAlign=middle;resizable=0;points=[];autosize=1;strokeColor=none;fillColor=none;" parent="1" vertex="1">
          <mxGeometry x="160" y="210" width="40" height="20" as="geometry" />
        </mxCell>
        <mxCell id="OvHx3TqHr2t8oJDqC7Or-78" value="(0,N)" style="text;html=1;align=center;verticalAlign=middle;resizable=0;points=[];autosize=1;strokeColor=none;fillColor=none;" parent="1" vertex="1">
          <mxGeometry x="-90" y="40" width="40" height="20" as="geometry" />
        </mxCell>
        <mxCell id="OvHx3TqHr2t8oJDqC7Or-79" value="(0,N)" style="text;html=1;align=center;verticalAlign=middle;resizable=0;points=[];autosize=1;strokeColor=none;fillColor=none;" parent="1" vertex="1">
          <mxGeometry x="-140" y="470" width="40" height="20" as="geometry" />
        </mxCell>
        <mxCell id="OvHx3TqHr2t8oJDqC7Or-81" value="fecha" style="text;html=1;align=center;verticalAlign=middle;resizable=0;points=[];autosize=1;strokeColor=none;fillColor=none;" parent="1" vertex="1">
          <mxGeometry x="-11" y="180" width="40" height="20" as="geometry" />
        </mxCell>
        <mxCell id="OvHx3TqHr2t8oJDqC7Or-83" value="hora" style="text;html=1;align=center;verticalAlign=middle;resizable=0;points=[];autosize=1;strokeColor=none;fillColor=none;" parent="1" vertex="1">
          <mxGeometry x="-30.5" y="160" width="40" height="20" as="geometry" />
        </mxCell>
        <mxCell id="OvHx3TqHr2t8oJDqC7Or-89" style="edgeStyle=orthogonalEdgeStyle;rounded=0;orthogonalLoop=1;jettySize=auto;html=1;exitX=0.5;exitY=1;exitDx=0;exitDy=0;entryX=1;entryY=0.5;entryDx=0;entryDy=0;startArrow=none;startFill=0;endArrow=none;endFill=0;" parent="1" source="OvHx3TqHr2t8oJDqC7Or-85" target="ldB5xFA6lpnTHOYbWixm-7" edge="1">
          <mxGeometry relative="1" as="geometry" />
        </mxCell>
        <mxCell id="OvHx3TqHr2t8oJDqC7Or-85" value="requiere" style="rhombus;whiteSpace=wrap;html=1;" parent="1" vertex="1">
          <mxGeometry x="60" y="330" width="80" height="80" as="geometry" />
        </mxCell>
        <mxCell id="OvHx3TqHr2t8oJDqC7Or-90" value="(0,N)" style="text;html=1;align=center;verticalAlign=middle;resizable=0;points=[];autosize=1;strokeColor=none;fillColor=none;" parent="1" vertex="1">
          <mxGeometry x="-3" y="470" width="40" height="20" as="geometry" />
        </mxCell>
        <mxCell id="OvHx3TqHr2t8oJDqC7Or-91" value="(0,N)" style="text;html=1;align=center;verticalAlign=middle;resizable=0;points=[];autosize=1;strokeColor=none;fillColor=none;" parent="1" vertex="1">
          <mxGeometry x="187" y="280" width="40" height="20" as="geometry" />
        </mxCell>
        <mxCell id="OvHx3TqHr2t8oJDqC7Or-92" value="" style="curved=1;endArrow=oval;html=1;rounded=0;endFill=1;" parent="1" edge="1">
          <mxGeometry width="50" height="50" relative="1" as="geometry">
            <mxPoint x="150" y="230" as="sourcePoint" />
            <mxPoint x="-40" y="200" as="targetPoint" />
            <Array as="points">
              <mxPoint x="120" y="160" />
              <mxPoint x="20" y="210" />
            </Array>
          </mxGeometry>
        </mxCell>
        <mxCell id="v-rBTAr1B4yWfYjMJ2wU-3" value="fechaIni" style="text;html=1;align=center;verticalAlign=middle;resizable=0;points=[];autosize=1;strokeColor=none;fillColor=none;" parent="1" vertex="1">
          <mxGeometry x="311" y="350" width="60" height="20" as="geometry" />
        </mxCell>
        <mxCell id="v-rBTAr1B4yWfYjMJ2wU-4" value="fechaFin(0,1)" style="text;html=1;align=center;verticalAlign=middle;resizable=0;points=[];autosize=1;strokeColor=none;fillColor=none;" parent="1" vertex="1">
          <mxGeometry x="308" y="390" width="90" height="20" as="geometry" />
        </mxCell>
        <mxCell id="YLSnhemmMj4vCAvOX7F_-4" style="edgeStyle=orthogonalEdgeStyle;rounded=0;orthogonalLoop=1;jettySize=auto;html=1;exitX=0.5;exitY=1;exitDx=0;exitDy=0;entryX=0.5;entryY=0;entryDx=0;entryDy=0;endArrow=none;endFill=0;" parent="1" source="YLSnhemmMj4vCAvOX7F_-1" target="ldB5xFA6lpnTHOYbWixm-9" edge="1">
          <mxGeometry relative="1" as="geometry" />
        </mxCell>
        <mxCell id="YLSnhemmMj4vCAvOX7F_-1" value="es_autorizado" style="rhombus;whiteSpace=wrap;html=1;" parent="1" vertex="1">
          <mxGeometry x="466.5" y="-10" width="94" height="80" as="geometry" />
        </mxCell>
        <mxCell id="YLSnhemmMj4vCAvOX7F_-6" style="edgeStyle=orthogonalEdgeStyle;rounded=0;orthogonalLoop=1;jettySize=auto;html=1;exitX=0.5;exitY=1;exitDx=0;exitDy=0;entryX=0.5;entryY=0;entryDx=0;entryDy=0;endArrow=none;endFill=0;" parent="1" source="YLSnhemmMj4vCAvOX7F_-2" target="ldB5xFA6lpnTHOYbWixm-8" edge="1">
          <mxGeometry relative="1" as="geometry" />
        </mxCell>
        <mxCell id="YLSnhemmMj4vCAvOX7F_-2" value="es_tutor" style="rhombus;whiteSpace=wrap;html=1;" parent="1" vertex="1">
          <mxGeometry x="676.5" y="-10" width="94" height="80" as="geometry" />
        </mxCell>
        <mxCell id="YLSnhemmMj4vCAvOX7F_-10" style="edgeStyle=orthogonalEdgeStyle;rounded=0;orthogonalLoop=1;jettySize=auto;html=1;exitX=0.5;exitY=1;exitDx=0;exitDy=0;entryX=0.5;entryY=0;entryDx=0;entryDy=0;endArrow=none;endFill=0;" parent="1" source="YLSnhemmMj4vCAvOX7F_-7" target="YLSnhemmMj4vCAvOX7F_-9" edge="1">
          <mxGeometry relative="1" as="geometry" />
        </mxCell>
        <mxCell id="YLSnhemmMj4vCAvOX7F_-7" value="contacto" style="rhombus;whiteSpace=wrap;html=1;" parent="1" vertex="1">
          <mxGeometry x="658.5" y="247" width="80" height="80" as="geometry" />
        </mxCell>
        <mxCell id="YLSnhemmMj4vCAvOX7F_-11" style="edgeStyle=orthogonalEdgeStyle;rounded=0;orthogonalLoop=1;jettySize=auto;html=1;exitX=0;exitY=0.25;exitDx=0;exitDy=0;endArrow=oval;endFill=1;" parent="1" source="YLSnhemmMj4vCAvOX7F_-9" edge="1">
          <mxGeometry relative="1" as="geometry">
            <mxPoint x="600" y="415" as="targetPoint" />
          </mxGeometry>
        </mxCell>
        <mxCell id="YLSnhemmMj4vCAvOX7F_-9" value="Teléfono" style="rounded=1;whiteSpace=wrap;html=1;fontStyle=1" parent="1" vertex="1">
          <mxGeometry x="639" y="400" width="120" height="60" as="geometry" />
        </mxCell>
        <mxCell id="YLSnhemmMj4vCAvOX7F_-12" value="telefono" style="text;html=1;align=center;verticalAlign=middle;resizable=0;points=[];autosize=1;strokeColor=none;fillColor=none;" parent="1" vertex="1">
          <mxGeometry x="540" y="406" width="60" height="20" as="geometry" />
        </mxCell>
        <mxCell id="YLSnhemmMj4vCAvOX7F_-13" value="(0,1)" style="text;html=1;align=center;verticalAlign=middle;resizable=0;points=[];autosize=1;strokeColor=none;fillColor=none;" parent="1" vertex="1">
          <mxGeometry x="636" y="-100" width="40" height="20" as="geometry" />
        </mxCell>
        <mxCell id="YLSnhemmMj4vCAvOX7F_-14" value="(0,1)" style="text;html=1;align=center;verticalAlign=middle;resizable=0;points=[];autosize=1;strokeColor=none;fillColor=none;" parent="1" vertex="1">
          <mxGeometry x="546" y="-100" width="40" height="20" as="geometry" />
        </mxCell>
        <mxCell id="YLSnhemmMj4vCAvOX7F_-15" value="(1,1)" style="text;html=1;align=center;verticalAlign=middle;resizable=0;points=[];autosize=1;strokeColor=none;fillColor=none;" parent="1" vertex="1">
          <mxGeometry x="719" y="90" width="40" height="20" as="geometry" />
        </mxCell>
        <mxCell id="YLSnhemmMj4vCAvOX7F_-16" value="(1,1)" style="text;html=1;align=center;verticalAlign=middle;resizable=0;points=[];autosize=1;strokeColor=none;fillColor=none;" parent="1" vertex="1">
          <mxGeometry x="480" y="93" width="40" height="20" as="geometry" />
        </mxCell>
        <mxCell id="YLSnhemmMj4vCAvOX7F_-22" style="edgeStyle=orthogonalEdgeStyle;rounded=0;orthogonalLoop=1;jettySize=auto;html=1;exitX=0.5;exitY=1;exitDx=0;exitDy=0;entryX=0.5;entryY=0;entryDx=0;entryDy=0;endArrow=none;endFill=0;" parent="1" source="YLSnhemmMj4vCAvOX7F_-19" target="YLSnhemmMj4vCAvOX7F_-21" edge="1">
          <mxGeometry relative="1" as="geometry" />
        </mxCell>
        <mxCell id="YLSnhemmMj4vCAvOX7F_-19" value="se sirve" style="rhombus;whiteSpace=wrap;html=1;" parent="1" vertex="1">
          <mxGeometry x="398" y="450" width="80" height="80" as="geometry" />
        </mxCell>
        <mxCell id="YLSnhemmMj4vCAvOX7F_-23" style="edgeStyle=orthogonalEdgeStyle;rounded=0;orthogonalLoop=1;jettySize=auto;html=1;exitX=1;exitY=0.25;exitDx=0;exitDy=0;endArrow=oval;endFill=1;" parent="1" source="YLSnhemmMj4vCAvOX7F_-21" edge="1">
          <mxGeometry relative="1" as="geometry">
            <mxPoint x="520" y="600" as="targetPoint" />
          </mxGeometry>
        </mxCell>
        <mxCell id="YLSnhemmMj4vCAvOX7F_-21" value="Servicio" style="rounded=1;whiteSpace=wrap;html=1;fontStyle=1" parent="1" vertex="1">
          <mxGeometry x="378" y="585" width="120" height="60" as="geometry" />
        </mxCell>
        <mxCell id="YLSnhemmMj4vCAvOX7F_-24" value="descripcion" style="text;html=1;align=center;verticalAlign=middle;resizable=0;points=[];autosize=1;strokeColor=none;fillColor=none;" parent="1" vertex="1">
          <mxGeometry x="520" y="590" width="80" height="20" as="geometry" />
        </mxCell>
        <mxCell id="YLSnhemmMj4vCAvOX7F_-25" value="(0,N)" style="text;html=1;align=center;verticalAlign=middle;resizable=0;points=[];autosize=1;strokeColor=none;fillColor=none;" parent="1" vertex="1">
          <mxGeometry x="306" y="490" width="40" height="20" as="geometry" />
        </mxCell>
        <mxCell id="YLSnhemmMj4vCAvOX7F_-27" value="(0,N)" style="text;html=1;align=center;verticalAlign=middle;resizable=0;points=[];autosize=1;strokeColor=none;fillColor=none;" parent="1" vertex="1">
          <mxGeometry x="398" y="565" width="40" height="20" as="geometry" />
        </mxCell>
        <mxCell id="4sZcGvl-OCm3VCfDrtr8-1" value="" style="curved=1;endArrow=oval;html=1;rounded=0;entryX=0.25;entryY=0;entryDx=0;entryDy=0;endFill=1;" edge="1" parent="1" target="ldB5xFA6lpnTHOYbWixm-8">
          <mxGeometry width="50" height="50" relative="1" as="geometry">
            <mxPoint x="670" y="-50" as="sourcePoint" />
            <mxPoint x="630" y="20" as="targetPoint" />
            <Array as="points">
              <mxPoint x="630" y="30" />
            </Array>
          </mxGeometry>
        </mxCell>
        <mxCell id="4sZcGvl-OCm3VCfDrtr8-2" value="" style="curved=1;endArrow=oval;html=1;rounded=0;entryX=0.75;entryY=0;entryDx=0;entryDy=0;endFill=1;" edge="1" parent="1" target="ldB5xFA6lpnTHOYbWixm-9">
          <mxGeometry width="50" height="50" relative="1" as="geometry">
            <mxPoint x="536" y="-56" as="sourcePoint" />
            <mxPoint x="586" y="-106" as="targetPoint" />
            <Array as="points">
              <mxPoint x="586" y="-56" />
              <mxPoint x="600" y="50" />
            </Array>
          </mxGeometry>
        </mxCell>
      </root>
    </mxGraphModel>
  </diagram>
</mxfile>
